<?xml version="1.0" standalone="no"?>
<!DOCTYPE svg PUBLIC "-//W3C//DTD SVG 20010904//EN"
 "http://www.w3.org/TR/2001/REC-SVG-20010904/DTD/svg10.dtd">
<svg version="1.0" xmlns="http://www.w3.org/2000/svg"
 width="166.000000pt" height="36.000000pt" viewBox="0 0 166.000000 36.000000"
 preserveAspectRatio="xMidYMid meet">
<metadata>
Created by potrace 1.10, written by Peter Selinger 2001-2011
</metadata>
<g transform="translate(0.000000,36.000000) scale(0.100000,-0.100000)"
fill="#000000" stroke="none">
<path d="M548 223 c2 -43 5 -84 7 -90 6 -19 75 -17 75 2 0 10 -10 15 -30 15
-28 0 -30 2 -30 40 0 38 2 40 30 40 20 0 30 5 30 15 0 10 -10 15 -31 15 -26 0
-31 3 -26 20 4 14 0 20 -12 20 -14 0 -16 -10 -13 -77z"/>
<path d="M1230 280 c0 -17 -7 -20 -48 -20 -58 0 -72 -12 -72 -63 0 -66 12 -77
85 -77 l65 0 0 90 c0 73 -3 90 -15 90 -8 0 -15 -9 -15 -20z m0 -90 l0 -40 -45
0 -45 0 0 40 0 40 45 0 45 0 0 -40z"/>
<path d="M127 253 c-13 -12 -8 -133 6 -133 8 0 11 16 9 54 l-4 54 44 3 c82 7
168 -2 168 -17 0 -10 -15 -14 -60 -14 -59 0 -60 0 -60 -28 0 -42 17 -52 87
-52 l63 0 0 58 c0 32 -5 63 -12 70 -13 13 -229 18 -241 5z m223 -88 c0 -11
-12 -15 -45 -15 -33 0 -45 4 -45 15 0 11 12 15 45 15 33 0 45 -4 45 -15z"/>
<path d="M390 165 c0 -78 3 -95 15 -95 9 0 15 9 15 25 0 24 3 25 54 25 40 0
55 4 60 16 10 27 7 99 -6 112 -7 7 -39 12 -75 12 l-63 0 0 -95z m120 25 l0
-40 -45 0 -45 0 0 40 0 40 45 0 45 0 0 -40z"/>
<path d="M646 245 c-9 -24 -7 -98 3 -113 5 -9 26 -12 67 -10 l59 3 0 65 0 65
-61 3 c-49 2 -63 0 -68 -13z m114 -50 l0 -45 -45 0 -45 0 0 39 c0 40 0 40 43
44 23 2 43 4 45 5 1 1 2 -18 2 -43z"/>
<path d="M807 253 c-4 -3 -7 -35 -7 -70 0 -46 4 -63 13 -63 10 0 13 13 9 54
l-4 55 43 3 c62 4 64 28 2 28 -28 0 -53 -3 -56 -7z"/>
<path d="M920 241 c-24 -47 -8 -64 63 -65 25 -1 42 -6 45 -15 4 -11 -7 -13
-57 -8 -53 4 -62 3 -57 -10 3 -8 6 -17 6 -19 0 -2 29 -4 64 -4 67 0 76 6 76
51 0 23 -19 32 -73 33 -25 1 -42 6 -45 15 -4 11 7 13 57 8 33 -3 61 -2 61 2 0
19 -29 31 -77 31 -41 0 -54 -4 -63 -19z"/>
<path d="M1276 244 c-3 -9 -6 -33 -6 -54 0 -66 4 -70 82 -70 51 0 69 3 66 13
-3 7 -27 13 -61 15 -43 2 -57 7 -57 18 0 12 12 15 58 13 54 -3 57 -2 58 22 1
48 -12 59 -75 59 -44 0 -60 -4 -65 -16z m114 -24 c0 -17 -7 -20 -45 -20 -33 0
-45 4 -45 14 0 10 14 16 43 19 23 2 43 4 45 5 1 1 2 -7 2 -18z"/>
<path d="M1420 254 c0 -3 16 -35 36 -70 24 -44 42 -64 52 -62 15 3 82 109 82
129 0 26 -29 2 -55 -46 l-30 -55 -27 55 c-16 30 -35 55 -43 55 -8 0 -15 -3
-15 -6z"/>
<path d="M1070 135 c0 -8 7 -15 15 -15 8 0 15 7 15 15 0 8 -7 15 -15 15 -8 0
-15 -7 -15 -15z"/>
</g>
</svg>
